<svg xmlns="http://www.w3.org/2000/svg" xmlns:xlink="http://www.w3.org/1999/xlink" viewBox="0,0,256,256" width="50px" height="50px"><g fill-opacity="0.4" fill="#1c2752" fill-rule="nonzero" stroke="none" stroke-width="1" stroke-linecap="butt" stroke-linejoin="miter" stroke-miterlimit="10" stroke-dasharray="" stroke-dashoffset="0" font-family="none" font-weight="none" font-size="none" text-anchor="none" style="mix-blend-mode: normal"><g transform="scale(5.12,5.12)"><path d="M17.22656,18.08594c-1.443,0 -2.20117,0.96536 -2.20117,1.81836c0,0.3 0.07042,1.35938 1.98242,1.35938c1.591,0 2.20313,-1.01734 2.20313,-1.77734c0,-0.511 -0.42037,-1.40039 -1.98438,-1.40039zM2.90234,18.53711l-2.90234,13.01563h3.58008c0.407,-2.087 0.95133,-4.28906 1.48633,-6.53906l2.50781,6.53906h3.41016l2.93945,-13.00977h-3.51367l-1.48633,6.61719l-2.46094,-6.62305zM20.80273,18.54297l-2.88867,13.00977h3.4707l1.16016,-4.94922l1.46875,4.94922h3.54883l-1.4707,-5.22266l3.56836,-4.33984h-3.97852l-2.87305,3.4707l1.55078,-6.91797zM34.56641,21.5918c-5.38,0 -6.16431,4.19494 -6.32031,4.96094c-0.392,1.937 0.04527,4.45023 2.57227,5.11523c1.667,0.439 4.27517,0.39148 5.95117,-0.97852c1.532,-1.253 2.28862,-3.37123 2.26563,-5.36523c-0.025,-1.915 -1.64575,-3.73242 -4.46875,-3.73242zM47.46875,21.74609c-1.19461,0.07941 -2.40555,0.73289 -3.0918,1.68164c0.09,-0.391 0.18497,-0.84805 0.29297,-1.37305h-3.54687l-2.07617,9.49805h3.5293l1.17773,-5.38867c0.218,-0.99 1.01275,-1.41542 1.71875,-1.23242c0.306,0.082 0.72299,0.31267 0.58398,1.13867l-1.19727,5.48242h3.48828l1.5957,-7.31641c0.341,-1.613 -0.98169,-2.27119 -1.30469,-2.36719c-0.374,-0.11125 -0.77172,-0.14952 -1.16992,-0.12305zM14.8457,21.99805l-2.12891,9.55469h3.49609l2.12891,-9.55469zM34.07617,24.29883c0.771,-0.007 0.98206,0.44986 0.91406,0.88086c-0.184,1.195 -0.598,2.70936 -0.75,3.19336c-0.003,0.006 -0.00291,0.01358 -0.00391,0.01758c-0.168,0.529 -0.66695,0.83594 -1.25195,0.83594c-0.593,0 -0.94944,-0.37166 -0.89844,-0.84766c0.087,-0.802 0.59428,-2.82952 0.73828,-3.22852c0.253,-0.697 0.94195,-0.84956 1.25195,-0.85156z"></path></g></g></svg>