<svg xmlns="http://www.w3.org/2000/svg" xmlns:xlink="http://www.w3.org/1999/xlink" viewBox="0,0,256,256" width="48px" height="48px"><g fill="none" fill-rule="nonzero" stroke="none" stroke-width="1" stroke-linecap="butt" stroke-linejoin="miter" stroke-miterlimit="10" stroke-dasharray="" stroke-dashoffset="0" font-family="none" font-weight="none" font-size="none" text-anchor="none" style="mix-blend-mode: normal"><g transform="scale(5.33333,5.33333)"><path d="M36,19.956v-2.956h-4.5h-3.75v2.956v2.216v2.956v2.216v2.956h3.75h4.5v-2.956h-4.5v-2.644h4.5v-2.8h-4.5v-1.944z" fill-opacity="0.4" fill="#1c2752"></path><path d="M24,17v5.32c-0.71,-0.7 -1.63,-1.12 -2.62,-1.12c-1.93,0 -3.54,1.56 -4,3.68c-0.02,-0.06 -0.03,-0.12 -0.05,-0.18c-0.69,-1.83 -2.56,-3.15 -4.77,-3.15c-1.82,0 -3.42,0.9 -4.31,2.26v-1.91h-4.5v-2.1h4.5v-2.8h-8.25v13.3h3.75v-5.6h4.04c-0.18,0.49 -0.29,1.02 -0.29,1.58c0,1.25 0.53,2.39 1.38,3.23c0.04,0.03 0.07,0.07 0.1,0.1c0.92,0.86 2.18,1.39 3.58,1.39c2.59,0 4.495,-1.492 4.971,-3h-3.568c-0.31,0.3 -0.694,0.56 -1.372,0.56c-1.751,0 -1.91,-1.43 -1.89,-1.76h6.6c0.28,2.38 2,4.2 4.08,4.2c0.99,0 1.65,-0.25 2.62,-1.4v0.7h3.75v-13.3zM10.7,24.7c0.29,-0.84 0.94,-1.42 1.69,-1.42c0.75,0 1.4,0.58 1.7,1.42zM22.12,28.2c-1.03,0 -1.87,-1.1 -1.87,-2.45c0,-1.35 0.84,-2.45 1.87,-2.45c1.04,0 1.88,1.1 1.88,2.45c0,1.35 -0.84,2.45 -1.88,2.45z" fill-opacity="0.4" fill="#3c497c"></path><path d="M48,21.9h-4.5l-1.5,1.68l-1.5,-1.68h-4.5l3.75,4.2l-3.75,4.2h4.5l1.5,-1.68l1.5,1.68h4.5l-3.75,-4.2z" fill-opacity="0.4" fill="#1c2752"></path></g></g></svg>